<svg viewBox="40 0 130 108" xmlns="http://www.w3.org/2000/svg" role="img" aria-label="SK m&amp;service">
  <path d="M100 5 C80 8 55 20 45 45 C62 62 88 65 108 52 C115 35 112 18 100 5 Z" fill="#EE7D22"/>
  <path d="M100 5 C85 18 68 33 62 48 C75 57 92 55 108 52 C115 35 112 18 100 5 Z" fill="#C31F39"/>
  <path d="M108 52 C125 62 148 72 165 85 C152 100 128 103 108 95 C100 80 102 65 108 52 Z" fill="#C31F39"/>
  <path d="M108 52 C120 62 133 70 145 77 C136 88 122 90 108 95 C100 80 102 65 108 52 Z" fill="#EE7D22"/>
</svg>
